PathFileType	4	(X/Y/Z)	E:\Qualisys_Data\Carbon_Farble_Plate\Data\Amateur_Runner\S1\T3\S1T3V23_c3d.trc
DataRate	CameraRate	NumFrames	NumMarkers	Units	OrigDataRate	OrigDataStartFrame	OrigNumFrames
200.000000	200.000000	4	39	mm	200.000000	37	296
Frame#	Time	LSHO			RSHO			LICST			RICST			LASIS			LHEEL			RASIS			LTROC			RTROC			SACR			LTH1			LSK4			LTH2			LTH3			RHM5			LSK2			LTH4			RTH1			LTOE			RTH2			RTH3			RTH4			LLEP			RLEP			LSK1			LSK3			RSK1			LHM5			RSK2			LFT1			RSK3			RSK4			LLME			RLME			RTOE			RHEEL			RFT1			RFT2			LFT2			
		X1	Y1	Z1	X2	Y2	Z2	X3	Y3	Z3	X4	Y4	Z4	X5	Y5	Z5	X6	Y6	Z6	X7	Y7	Z7	X8	Y8	Z8	X9	Y9	Z9	X10	Y10	Z10	X11	Y11	Z11	X12	Y12	Z12	X13	Y13	Z13	X14	Y14	Z14	X15	Y15	Z15	X16	Y16	Z16	X17	Y17	Z17	X18	Y18	Z18	X19	Y19	Z19	X20	Y20	Z20	X21	Y21	Z21	X22	Y22	Z22	X23	Y23	Z23	X24	Y24	Z24	X25	Y25	Z25	X26	Y26	Z26	X27	Y27	Z27	X28	Y28	Z28	X29	Y29	Z29	X30	Y30	Z30	X31	Y31	Z31	X32	Y32	Z32	X33	Y33	Z33	X34	Y34	Z34	X35	Y35	Z35	X36	Y36	Z36	X37	Y37	Z37	X38	Y38	Z38	X39	Y39	Z39	

38	0.185	-2286.05029296875	1484.340576171875	-548.6668090820312	-2307.28857421875	1443.122680664062	-217.1816558837891	-2332.374267578125	999.959716796875	-549.2898559570312	-2349.649169921875	1033.051635742188	-249.4754028320312	-2284.6455078125	967.6851196289062	-516.778564453125	-2564.4736328125	438.681884765625	-464.6069946289062	-2306.040771484375	986.509521484375	-251.1062927246094	-2378.148681640625	874.134033203125	-564.9422607421875	-2414.177490234375	892.5691528320312	-229.2487945556641	-2457.7236328125	1026.942993164062	-402.9846496582031	-2190.677490234375	792.2284545898438	-537.031005859375	-2417.055419921875	489.9586486816406	-490.6604614257812	-2255.451904296875	747.1431884765625	-572.5159301757812	-2136.646240234375	704.3001708984375	-528.9439697265625	-2371.396484375	70.5631103515625	-277.8645935058594	-2323.592529296875	517.3043823242188	-527.8856811523438	-2205.523681640625	660.1724853515625	-555.241943359375	-2270.822509765625	766.7437133789062	-236.5331268310547	-2470.684814453125	206.1204376220703	-457.3275756835938	-2348.170166015625	756.9912719726562	-219.3937225341797	-2260.803955078125	666.7169799804688	-247.3580322265625	-2341.259521484375	659.267822265625	-238.2091979980469	-2124.443359375	545.50634765625	-517.5264892578125	-2294.36376953125	493.3468627929688	-279.587646484375	-2301.724609375	437.4516906738281	-518.3067626953125	-2399.71630859375	415.2952270507812	-513.5148315429688	-2361.010498046875	317.37060546875	-274.9664611816406	-2515.124755859375	258.6998291015625	-519.018310546875	-2435.93310546875	352.3502502441406	-281.9938659667969	-2587.40771484375	420.1976928710938	-434.4227600097656	-2401.721923828125	227.3019256591797	-293.1671447753906	-2473.759521484375	262.6795043945312	-308.9032897949219	-2519.158935546875	400.0314331054688	-507.5286560058594	-2489.2666015625	131.1395568847656	-296.8455810546875	-2315.24365234375	72.98485565185547	-350.5758972167969	-2565.77783203125	104.3833847045898	-338.772705078125	-2560.184326171875	73.97028350830078	-367.5350646972656	-2567.525390625	79.07162475585938	-315.8545227050781	-2592.00830078125	420.1913146972656	-486.3938293457031
39	0.19	-2266.923095703125	1486.7431640625	-549.5311889648438	-2285.045166015625	1446.371704101562	-217.7942352294922	-2313.12109375	1003.795104980469	-548.6032104492188	-2325.658935546875	1033.992553710938	-247.7818756103516	-2265.153564453125	970.8964233398438	-517.5374755859375	-2530.6376953125	428.1278991699219	-463.5204772949219	-2284.351318359375	987.31103515625	-249.5161437988281	-2357.48046875	877.5036010742188	-563.946533203125	-2391.744140625	894.7086791992188	-227.91845703125	-2436.251220703125	1029.360961914062	-400.0720825195312	-2168.935546875	799.4403076171875	-535.9512329101562	-2385.310546875	486.2326965332031	-490.0638427734375	-2231.65185546875	752.2523193359375	-571.5328979492188	-2110.77734375	713.0340576171875	-527.530517578125	-2371.160400390625	70.45024871826172	-277.9209899902344	-2293.0830078125	516.8311767578125	-527.0421752929688	-2179.263671875	667.21337890625	-554.1329345703125	-2252.89306640625	765.3292236328125	-236.0673522949219	-2424.464599609375	201.5888977050781	-456.4114074707031	-2331.6474609375	758.7056884765625	-219.5573577880859	-2249.256591796875	662.9883422851562	-248.0093383789062	-2328.586669921875	660.476318359375	-237.9172058105469	-2094.465087890625	553.9614868164062	-515.8848266601562	-2285.345458984375	493.5543823242188	-280.6370849609375	-2266.36962890625	438.4767456054688	-515.261962890625	-2365.539306640625	413.3995361328125	-512.7815551757812	-2356.085693359375	317.2438049316406	-275.7390747070312	-2471.909423828125	251.3024749755859	-518.4363403320312	-2429.308837890625	353.91064453125	-280.7686157226562	-2553.2509765625	408.3641052246094	-433.5202331542969	-2399.191162109375	227.8278961181641	-293.7008666992188	-2471.04833984375	265.8006286621094	-308.8031005859375	-2484.29833984375	392.7037963867188	-507.4749450683594	-2488.621826171875	133.8643341064453	-295.9083557128906	-2315.363525390625	72.14860534667969	-350.8874816894531	-2565.031982421875	105.1697616577148	-337.8978881835938	-2560.381591796875	75.97212219238281	-367.4603881835938	-2567.7314453125	80.60746002197266	-315.8844909667969	-2557.520751953125	408.6197814941406	-485.0116882324219
40	0.195	-2248.037353515625	1489.77587890625	-550.6326293945312	-2262.336669921875	1449.886108398438	-219.4473876953125	-2293.13720703125	1007.022277832031	-548.304931640625	-2302.339599609375	1035.712280273438	-246.8343811035156	-2243.486083984375	974.0596923828124	-517.6491088867188	-2497.681396484375	418.1220703125	-462.8009338378906	-2260.9130859375	989.092529296875	-249.9174957275391	-2336.69677734375	880.8485107421875	-564.0055541992188	-2369.361572265625	896.7428588867188	-226.4834136962891	-2413.950439453125	1031.544799804688	-397.1375122070312	-2146.668701171875	807.1747436523438	-535.1751098632812	-2353.912841796875	482.7794494628906	-489.7685852050781	-2207.525146484375	757.2584228515625	-570.6305541992188	-2086.5361328125	721.8610229492188	-526.1995849609375	-2371.05517578125	70.3578109741211	-277.8134460449219	-2262.34814453125	516.4509887695312	-526.2391357421875	-2152.36572265625	673.60595703125	-553.2438354492188	-2237.689453125	763.7086181640625	-236.7903594970703	-2380.5927734375	196.4722290039062	-456.1957092285156	-2315.437744140625	760.4241333007812	-219.2450561523438	-2235.8837890625	663.1325073242188	-247.1135711669922	-2315.423583984375	662.5867309570312	-237.7962188720703	-2065.88671875	562.7335815429688	-514.3635864257812	-2274.85693359375	494.5028686523438	-281.5072326660156	-2233.598876953125	440.2890625	-514.3862915039062	-2331.54345703125	411.1767272949219	-511.9584045410156	-2350.9970703125	318.5106506347656	-276.7828674316406	-2428.712646484375	244.62841796875	-517.2828979492188	-2424.038330078125	356.1796264648438	-280.2471008300781	-2518.673095703125	396.5980224609375	-432.9408874511719	-2395.7021484375	229.8527984619141	-293.7320861816406	-2466.373779296875	268.557373046875	-307.9884033203125	-2449.02734375	384.1386413574219	-506.50537109375	-2486.85693359375	136.3346252441406	-295.2200927734375	-2314.974365234375	71.60560607910156	-350.7102661132812	-2566.68017578125	107.7806396484375	-338.62841796875	-2560.046142578125	77.32640075683594	-367.5302429199219	-2567.383056640625	81.18524932861328	-315.5389099121094	-2522.60498046875	396.2024536132812	-483.7928771972656
41	0.2	-2229.4443359375	1492.673950195312	-551.6797485351562	-2238.9638671875	1453.5810546875	-219.3237915039062	-2272.4755859375	1011.250610351562	-546.7960815429688	-2277.889404296875	1037.108154296875	-245.3000183105469	-2224.2607421875	977.5921630859376	-517.4383544921875	-2464.050048828125	406.9383850097656	-462.2247009277344	-2235.83935546875	989.9864501953124	-249.9089813232422	-2315.09375	885.8643798828125	-562.8606567382812	-2347.413330078125	899.1630249023438	-225.6040496826172	-2391.5673828125	1034.275024414062	-394.4483947753906	-2123.531982421875	814.1954345703125	-533.558349609375	-2322.350830078125	478.4941711425781	-489.2043762207031	-2184.663330078125	763.783203125	-569.2935791015625	-2062.6640625	730.4932861328125	-525.1619262695312	-2370.79736328125	70.74052429199219	-278.2459716796875	-2233.568115234375	518.0833129882812	-524.9107055664062	-2127.314208984375	680.7542114257812	-552.0621948242188	-2219.1259765625	765.292724609375	-236.8638610839844	-2333.792236328125	191.9502410888672	-454.7444763183594	-2297.56494140625	762.9784545898438	-219.0189819335938	-2220.47998046875	663.676513671875	-248.7902526855469	-2299.663330078125	664.8847045898438	-237.9721221923828	-2037.628295898438	571.3800659179688	-512.7930908203125	-2266.363525390625	495.7890319824219	-282.8280029296875	-2198.72607421875	441.353759765625	-512.187255859375	-2298.30517578125	409.8457946777344	-511.6964111328125	-2346.541259765625	319.6654357910156	-277.2326965332031	-2385.784912109375	237.5692443847656	-517.166015625	-2418.252197265625	358.9453430175781	-279.3411865234375	-2483.721435546875	384.7415161132812	-432.3222045898438	-2391.822021484375	232.8536987304688	-293.4476928710938	-2461.729736328125	271.9887390136719	-307.6715087890625	-2413.137451171875	375.6578979492188	-505.4435119628906	-2485.551025390625	139.5364837646484	-295.2517700195312	-2314.78662109375	70.92896270751953	-350.8840026855469	-2565.86962890625	109.6245193481445	-339.0667724609375	-2559.32177734375	78.76475524902344	-367.6539916992188	-2566.89990234375	83.927001953125	-316.3099975585938	-2487.764892578125	384.0727844238281	-483.0077819824219
